<svg xmlns="http://www.w3.org/2000/svg" viewBox="0 0 128 128" role="img" aria-label="SessionToJson icon">
  <rect width="128" height="128" rx="28" fill="#111827"/>
  <path d="M32 38c-8 0-14 6-14 14v6c0 6-4 10-10 10 6 0 10 4 10 10v6c0 8 6 14 14 14" fill="none" stroke="#60a5fa" stroke-width="9" stroke-linecap="round"/>
  <path d="M96 38c8 0 14 6 14 14v6c0 6 4 10 10 10-6 0-10 4-10 10v6c0 8-6 14-14 14" fill="none" stroke="#34d399" stroke-width="9" stroke-linecap="round"/>
  <path d="M50 48h28M44 64h40M50 80h28" stroke="#f9fafb" stroke-width="8" stroke-linecap="round"/>
</svg>
