<svg xmlns="http://www.w3.org/2000/svg" viewBox="0 0 128 128" role="img" aria-label="SessionToJson icon">
  <defs>
    <linearGradient id="bg" x1="18" y1="12" x2="112" y2="118" gradientUnits="userSpaceOnUse">
      <stop stop-color="#111827"/>
      <stop offset="0.58" stop-color="#0b1020"/>
      <stop offset="1" stop-color="#030712"/>
    </linearGradient>
    <linearGradient id="edge" x1="18" y1="18" x2="110" y2="110" gradientUnits="userSpaceOnUse">
      <stop stop-color="#6b7280"/>
      <stop offset="1" stop-color="#374151"/>
    </linearGradient>
  </defs>
  <rect width="128" height="128" rx="28" fill="url(#bg)"/>
  <rect x="10" y="10" width="108" height="108" rx="24" fill="none" stroke="url(#edge)" stroke-width="4"/>
  <rect x="25" y="24" width="78" height="80" rx="12" fill="#111827" stroke="#4b5563" stroke-width="4"/>
  <path d="M43 41c-7 0-12 5-12 12v5c0 5-4 8-9 8 5 0 9 3 9 8v5c0 7 5 12 12 12" fill="none" stroke="#9ca3af" stroke-width="7" stroke-linecap="round"/>
  <path d="M85 41c7 0 12 5 12 12v5c0 5 4 8 9 8-5 0-9 3-9 8v5c0 7-5 12-12 12" fill="none" stroke="#9ca3af" stroke-width="7" stroke-linecap="round"/>
  <path d="M51 50h25M48 64h32M51 78h25" stroke="#f3f4f6" stroke-width="6" stroke-linecap="round"/>
  <circle cx="96" cy="32" r="5" fill="#6b7280"/>
</svg>
